<svg id="图层_1" data-name="图层 1" xmlns="http://www.w3.org/2000/svg" viewBox="0 0 595.28 841.89"><defs><style>.cls-1{fill:none;stroke:#231815;stroke-miterlimit:10;stroke-width:60px;}.cls-2{fill:#231815;}</style></defs><title>未标题-2</title><circle class="cls-1" cx="237.42" cy="329.29" r="169.09" transform="translate(-163.31 264.32) rotate(-45)"/><rect class="cls-2" x="428.28" y="406.9" width="60" height="286.5" rx="30" ry="30" transform="translate(-254.79 485.18) rotate(-45)"/><path class="cls-2" d="M300.41,299.29h-33v-33a30,30,0,0,0-60,0v33h-33a30,30,0,0,0-30,30h0a30,30,0,0,0,30,30h33v33a30,30,0,1,0,60,0v-33h33a30,30,0,0,0,30-30h0A30,30,0,0,0,300.41,299.29Z"/></svg>